<svg width="19658" height="18" viewBox="0 0 19658 18" fill="none" xmlns="http://www.w3.org/2000/svg">
<line x1="1" y1="2" x2="648" y2="2" stroke="white" stroke-width="2" stroke-linecap="round"/>
<line x1="778" y1="2" x2="6601" y2="2" stroke="white" stroke-width="2" stroke-linecap="round"/>
<line x1="13638" y1="2" x2="13730" y2="2.00001" stroke="white" stroke-width="2" stroke-linecap="round"/>
<line x1="13860" y1="2" x2="13952" y2="2.00001" stroke="white" stroke-width="2" stroke-linecap="round"/>
<line x1="14102" y1="2" x2="14194" y2="2.00001" stroke="white" stroke-width="2" stroke-linecap="round"/>
<line x1="14344" y1="2" x2="14436" y2="2.00001" stroke="white" stroke-width="2" stroke-linecap="round"/>
<line x1="14538" y1="2" x2="14630" y2="2.00001" stroke="white" stroke-width="2" stroke-linecap="round"/>
<line x1="14536" y1="2" x2="14628" y2="2.00001" stroke="white" stroke-width="2" stroke-linecap="round"/>
<line x1="14730" y1="2" x2="19657" y2="2.00043" stroke="white" stroke-width="2" stroke-linecap="round"/>
<line x1="6741" y1="2" x2="6793" y2="2" stroke="white" stroke-width="2" stroke-linecap="round"/>
<line x1="7697" y1="2" x2="13446" y2="2" stroke="white" stroke-width="2" stroke-linecap="round"/>
<line x1="7121" y1="2" x2="7173" y2="2" stroke="white" stroke-width="2" stroke-linecap="round"/>
<line x1="6929" y1="2" x2="7029" y2="2.00001" stroke="white" stroke-width="2" stroke-linecap="round"/>
<line x1="7315" y1="2" x2="7415" y2="2.00001" stroke="white" stroke-width="2" stroke-linecap="round"/>
<rect x="6835" width="48" height="17" rx="2" fill="black"/>
<rect x="7219" width="48" height="17" rx="2" fill="black"/>
<rect x="7458" width="48" height="17" rx="2" fill="black"/>
<rect x="7602" width="48" height="17" rx="2" fill="black"/>
<rect x="7075" y="1" width="48" height="17" rx="2" fill="black"/>
<rect x="6883" width="48" height="17" rx="2" fill="black"/>
<rect x="7267" width="48" height="17" rx="2" fill="black"/>
<rect x="7506" width="48" height="17" rx="2" fill="black"/>
<rect x="13445" y="1" width="48" height="17" rx="2" fill="black"/>
<rect x="13687" y="1" width="48" height="17" rx="2" fill="black"/>
<rect x="13929" y="1" width="48" height="17" rx="2" fill="black"/>
<rect x="14171" y="1" width="48" height="17" rx="2" fill="black"/>
<rect x="13493" y="1" width="48" height="17" rx="2" fill="black"/>
<rect x="13735" y="1" width="48" height="17" rx="2" fill="black"/>
<rect x="13977" y="1" width="48" height="17" rx="2" fill="black"/>
<rect x="14219" y="1" width="48" height="17" rx="2" fill="black"/>
<rect x="14413" y="1" width="48" height="17" rx="2" fill="black"/>
<rect x="14607" y="1" width="48" height="17" rx="2" fill="black"/>
<rect x="13541" y="1" width="48" height="17" rx="2" fill="black"/>
<rect x="13783" y="1" width="48" height="17" rx="2" fill="black"/>
<rect x="14025" y="1" width="48" height="17" rx="2" fill="black"/>
<rect x="14267" y="1" width="48" height="17" rx="2" fill="black"/>
<rect x="14461" y="1" width="48" height="17" rx="2" fill="black"/>
<rect x="14655" y="1" width="48" height="17" rx="2" fill="black"/>
<rect x="647" y="1" width="48" height="17" rx="2" fill="black"/>
<rect x="695" y="1" width="48" height="17" rx="2" fill="black"/>
<rect x="743" y="1" width="48" height="17" rx="2" fill="black"/>
<rect x="13589" y="1" width="48" height="17" rx="2" fill="black"/>
<rect x="13831" y="1" width="48" height="17" rx="2" fill="black"/>
<rect x="14073" y="1" width="48" height="17" rx="2" fill="black"/>
<rect x="14315" y="1" width="48" height="17" rx="2" fill="black"/>
<rect x="14509" y="1" width="48" height="17" rx="2" fill="black"/>
<rect x="14703" y="1" width="48" height="17" rx="2" fill="black"/>
<rect x="7650" width="48" height="17" rx="2" fill="black"/>
<rect x="6787" width="48" height="17" rx="2" fill="black"/>
<rect x="7171" width="48" height="17" rx="2" fill="black"/>
<rect x="7410" width="48" height="17" rx="2" fill="black"/>
<rect x="7554" width="48" height="17" rx="2" fill="black"/>
<rect x="7027" y="1" width="48" height="17" rx="2" fill="black"/>
<rect x="6599" y="1" width="48" height="17" rx="2" fill="black"/>
<rect x="6647" y="1" width="48" height="17" rx="2" fill="black"/>
<rect x="6695" y="1" width="48" height="17" rx="2" fill="black"/>
</svg>
